<svg width="350" height="330" viewBox="0 0 350 330" fill="none" xmlns="http://www.w3.org/2000/svg">
<rect width="350" height="330" rx="24" fill="#F2F2F7"/>
<path d="M145.875 129.312H195.562C203.062 129.312 209.562 130.104 215.062 131.688C220.562 133.229 225.125 135.479 228.75 138.438C232.375 141.396 235.062 145 236.812 149.25C238.604 153.5 239.5 158.312 239.5 163.688C239.5 167.312 239.062 170.771 238.188 174.062C237.312 177.312 235.958 180.312 234.125 183.062C232.333 185.812 230.062 188.271 227.312 190.438C224.562 192.562 221.333 194.333 217.625 195.75L238.875 227H214.625L196.25 199.25H195.688L165.688 199.188V227H145.875V129.312ZM196.062 182.062C199.812 182.062 203.083 181.625 205.875 180.75C208.708 179.875 211.062 178.646 212.938 177.062C214.854 175.479 216.271 173.562 217.188 171.312C218.146 169.021 218.625 166.479 218.625 163.688C218.625 158.229 216.75 154.021 213 151.062C209.25 148.062 203.604 146.562 196.062 146.562H165.688V182.062H196.062Z" fill="#060606"/>
<path d="M117.875 105.312H169.375C176.875 105.312 183.375 106.125 188.875 107.75C194.375 109.375 198.938 111.729 202.562 114.812C206.188 117.854 208.875 121.583 210.625 126C212.417 130.417 213.312 135.396 213.312 140.938C213.312 146.146 212.438 150.958 210.688 155.375C208.938 159.792 206.25 163.625 202.625 166.875C199.042 170.083 194.5 172.604 189 174.438C183.5 176.229 177 177.125 169.5 177.125L137.688 177.062V203H117.875V105.312ZM169.875 159.938C173.625 159.938 176.896 159.5 179.688 158.625C182.521 157.708 184.875 156.438 186.75 154.812C188.667 153.146 190.083 151.146 191 148.812C191.958 146.438 192.438 143.812 192.438 140.938C192.438 135.146 190.542 130.646 186.75 127.438C183 124.188 177.375 122.562 169.875 122.562H137.688V159.938H169.875Z" fill="#F2F2F7"/>
<path d="M113.875 100.312H165.375C172.875 100.312 179.375 101.125 184.875 102.75C190.375 104.375 194.938 106.729 198.562 109.812C202.188 112.854 204.875 116.583 206.625 121C208.417 125.417 209.312 130.396 209.312 135.938C209.312 141.146 208.438 145.958 206.688 150.375C204.938 154.792 202.25 158.625 198.625 161.875C195.042 165.083 190.5 167.604 185 169.438C179.5 171.229 173 172.125 165.5 172.125L133.688 172.062V198H113.875V100.312ZM165.875 154.938C169.625 154.938 172.896 154.5 175.688 153.625C178.521 152.708 180.875 151.438 182.75 149.812C184.667 148.146 186.083 146.146 187 143.812C187.958 141.438 188.438 138.812 188.438 135.938C188.438 130.146 186.542 125.646 182.75 122.438C179 119.188 173.375 117.562 165.875 117.562H133.688V154.938H165.875Z" fill="#060606"/>
</svg>
