<?xml version="1.0" encoding="UTF-8"?>
<svg xmlns="http://www.w3.org/2000/svg" xmlns:xlink="http://www.w3.org/1999/xlink" width="16px" height="16px" viewBox="0 0 16 16" version="1.1">
<g id="surface1">
<path style=" stroke:none;fill-rule:evenodd;fill:rgb(0%,0%,0%);fill-opacity:1;" d="M -0.015625 -0.0117188 C 5.320312 -0.0117188 10.652344 -0.0117188 15.984375 -0.0117188 C 15.984375 5.320312 15.984375 10.652344 15.984375 15.988281 C 10.652344 15.988281 5.320312 15.988281 -0.015625 15.988281 C -0.015625 10.652344 -0.015625 5.320312 -0.015625 -0.0117188 Z M -0.015625 -0.0117188 "/>
<path style=" stroke:none;fill-rule:evenodd;fill:rgb(87.45098%,87.45098%,87.45098%);fill-opacity:1;" d="M 7.476562 4.441406 C 6.945312 4.441406 6.410156 4.441406 5.878906 4.441406 C 5.878906 6.292969 5.878906 8.144531 5.878906 9.992188 C 6.042969 9.992188 6.210938 9.992188 6.375 9.992188 C 6.367188 9.304688 6.375 8.617188 6.402344 7.933594 C 6.402344 8.628906 6.402344 9.324219 6.402344 10.019531 C 6.21875 10.019531 6.035156 10.019531 5.851562 10.019531 C 5.851562 8.152344 5.851562 6.285156 5.851562 4.417969 C 6.398438 4.410156 6.941406 4.417969 7.476562 4.441406 Z M 7.476562 4.441406 "/>
<path style=" stroke:none;fill-rule:evenodd;fill:rgb(51.764706%,51.764706%,51.764706%);fill-opacity:1;" d="M 7.476562 4.441406 C 8.160156 4.523438 8.441406 4.886719 8.316406 5.539062 C 8.277344 5.671875 8.21875 5.792969 8.136719 5.902344 C 7.855469 6.25 7.570312 6.597656 7.285156 6.945312 C 7.542969 7.503906 7.800781 8.058594 8.054688 8.613281 C 8.246094 9.011719 8.429688 9.417969 8.605469 9.824219 C 8.46875 9.953125 8.304688 10.035156 8.109375 10.070312 C 8.105469 10.027344 8.097656 9.984375 8.082031 9.941406 C 7.902344 9.515625 7.710938 9.101562 7.503906 8.691406 C 7.304688 8.257812 7.105469 7.824219 6.914062 7.386719 C 6.742188 7.570312 6.570312 7.753906 6.402344 7.933594 C 6.375 8.617188 6.367188 9.304688 6.375 9.992188 C 6.210938 9.992188 6.042969 9.992188 5.878906 9.992188 C 5.878906 8.144531 5.878906 6.292969 5.878906 4.441406 C 6.410156 4.441406 6.945312 4.441406 7.476562 4.441406 Z M 7.476562 4.441406 "/>
<path style=" stroke:none;fill-rule:evenodd;fill:rgb(77.254902%,77.254902%,77.254902%);fill-opacity:1;" d="M 7.394531 4.910156 C 7.0625 4.910156 6.734375 4.910156 6.402344 4.910156 C 6.398438 5.683594 6.402344 6.457031 6.417969 7.230469 C 6.425781 7.214844 6.441406 7.207031 6.457031 7.207031 C 6.460938 7.246094 6.441406 7.269531 6.402344 7.285156 C 6.375 6.484375 6.367188 5.683594 6.375 4.886719 C 6.71875 4.878906 7.058594 4.886719 7.394531 4.910156 Z M 7.394531 4.910156 "/>
<path style=" stroke:none;fill-rule:evenodd;fill:rgb(0%,0%,0%);fill-opacity:1;" d="M 7.394531 4.910156 C 7.730469 4.988281 7.851562 5.1875 7.765625 5.511719 C 7.738281 5.613281 7.695312 5.707031 7.640625 5.796875 C 7.597656 5.820312 7.554688 5.828125 7.503906 5.824219 C 7.503906 5.875 7.503906 5.929688 7.503906 5.980469 C 7.15625 6.386719 6.808594 6.796875 6.457031 7.207031 C 6.441406 7.207031 6.425781 7.214844 6.417969 7.230469 C 6.402344 6.457031 6.398438 5.683594 6.402344 4.910156 C 6.734375 4.910156 7.0625 4.910156 7.394531 4.910156 Z M 7.394531 4.910156 "/>
<path style=" stroke:none;fill-rule:evenodd;fill:rgb(92.156863%,92.156863%,92.156863%);fill-opacity:1;" d="M 7.640625 5.796875 C 7.605469 5.867188 7.5625 5.925781 7.503906 5.980469 C 7.503906 5.929688 7.503906 5.875 7.503906 5.824219 C 7.554688 5.828125 7.597656 5.820312 7.640625 5.796875 Z M 7.640625 5.796875 "/>
<path style=" stroke:none;fill-rule:evenodd;fill:rgb(94.901961%,94.901961%,94.901961%);fill-opacity:1;" d="M 8.054688 8.613281 C 7.800781 8.058594 7.542969 7.503906 7.285156 6.945312 C 7.570312 6.597656 7.855469 6.25 8.136719 5.902344 C 8.640625 6.472656 9.144531 7.042969 9.636719 7.621094 C 9.652344 7.023438 9.65625 6.421875 9.652344 5.824219 C 9.835938 5.824219 10.019531 5.824219 10.203125 5.824219 C 10.203125 7.753906 10.203125 9.679688 10.203125 11.609375 C 10.019531 11.609375 9.835938 11.609375 9.652344 11.609375 C 9.65625 10.550781 9.652344 9.488281 9.636719 8.429688 C 9.125 7.832031 8.601562 7.242188 8.070312 6.65625 C 8.054688 7.308594 8.050781 7.960938 8.054688 8.613281 Z M 8.054688 8.613281 "/>
<path style=" stroke:none;fill-rule:evenodd;fill:rgb(94.509804%,94.509804%,94.509804%);fill-opacity:1;" d="M 7.503906 8.691406 C 7.710938 9.101562 7.902344 9.515625 8.082031 9.941406 C 8.054688 10.492188 8.046875 11.046875 8.054688 11.609375 C 7.871094 11.609375 7.6875 11.609375 7.503906 11.609375 C 7.503906 10.636719 7.503906 9.664062 7.503906 8.691406 Z M 7.503906 8.691406 "/>
</g>
</svg>
