<svg width="350" height="330" viewBox="0 0 350 330" fill="none" xmlns="http://www.w3.org/2000/svg">
<g id="renan-logo" filter="url(#filter0_i_2_15)">
<rect width="350" height="330" fill="black"/>
<path id="N" d="M216.28 229L159.28 128.277C160.348 138.044 160.958 145.904 161.111 151.855V229H136.846V98.2892H167.979L225.894 199.699C224.826 190.39 224.216 181.92 224.063 174.289V98.2892H248.328V229H216.28Z" fill="#76B2B0"/>
<path id="N_2" d="M226.328 229L169.328 128.277C170.396 138.044 171.007 145.904 171.159 151.855V229H146.894V98.2892H178.027L235.943 199.699C234.874 190.39 234.264 181.92 234.111 174.289V98.2892H258.376V229H226.328Z" fill="#F2F2F2"/>
<path id="R" d="M190.581 191L160.135 141.325H128.087V191H100.846V60.2892H166.087C181.653 60.2892 193.633 63.6466 202.027 70.3614C210.573 77.0763 214.846 86.6908 214.846 99.2048C214.846 108.361 212.252 116.297 207.063 123.012C201.874 129.574 194.854 133.924 186.003 136.06L221.256 191H190.581ZM187.376 100.349C187.376 87.8353 179.288 81.5783 163.111 81.5783H128.087V120.036H164.027C171.657 120.036 177.456 118.357 181.424 115C185.392 111.49 187.376 106.606 187.376 100.349Z" fill="#76B2B0"/>
<path id="R_2" d="M199.625 191L169.179 141.325H137.131V191H109.89V60.2892H175.131C190.697 60.2892 202.677 63.6466 211.07 70.3614C219.616 77.0763 223.89 86.6908 223.89 99.2048C223.89 108.361 221.295 116.297 216.106 123.012C210.918 129.574 203.898 133.924 195.046 136.06L230.299 191H199.625ZM196.42 100.349C196.42 87.8353 188.331 81.5783 172.155 81.5783H137.131V120.036H173.07C180.701 120.036 186.5 118.357 190.468 115C194.436 111.49 196.42 106.606 196.42 100.349Z" fill="#F2F2F2"/>
</g>
<defs>
<filter id="filter0_i_2_15" x="0" y="0" width="353" height="334" filterUnits="userSpaceOnUse" color-interpolation-filters="sRGB">
<feFlood flood-opacity="0" result="BackgroundImageFix"/>
<feBlend mode="normal" in="SourceGraphic" in2="BackgroundImageFix" result="shape"/>
<feColorMatrix in="SourceAlpha" type="matrix" values="0 0 0 0 0 0 0 0 0 0 0 0 0 0 0 0 0 0 127 0" result="hardAlpha"/>
<feOffset dx="3" dy="4"/>
<feGaussianBlur stdDeviation="2"/>
<feComposite in2="hardAlpha" operator="arithmetic" k2="-1" k3="1"/>
<feColorMatrix type="matrix" values="0 0 0 0 0.0862745 0 0 0 0 0.2 0 0 0 0 0.2 0 0 0 0.5 0"/>
<feBlend mode="normal" in2="shape" result="effect1_innerShadow_2_15"/>
</filter>
</defs>
</svg>
