<svg width="158" height="198" viewBox="0 0 158 198" fill="none" xmlns="http://www.w3.org/2000/svg">
<g id="renan-logo" filter="url(#filter0_i_2_15)">
<path id="N" d="M114.833 191.569L57.8331 90.8463C58.9014 100.613 59.5118 108.473 59.6645 114.425V191.569H35.3994V60.8584H66.5319L124.448 162.268C123.379 152.959 122.769 144.489 122.616 136.858V60.8584H146.881V191.569H114.833Z" fill="#4B7574"/>
<path id="N_2" d="M119.695 191.569L62.6947 90.8463C63.763 100.613 64.3734 108.473 64.526 114.425V191.569H40.261V60.8584H71.3935L129.309 162.268C128.241 152.959 127.63 144.489 127.478 136.858V60.8584H151.743V191.569H119.695Z" fill="#F2F2F2"/>
<path id="R" d="M89.7612 154L59.3154 104.325H27.2672V154H0.0262817V23.2892H65.2672C80.8335 23.2892 92.8134 26.6466 101.207 33.3614C109.753 40.0763 114.026 49.6908 114.026 62.2048C114.026 71.3614 111.432 79.2972 106.243 86.012C101.054 92.5743 94.0343 96.9237 85.1829 99.0602L120.436 154H89.7612ZM86.5564 63.3494C86.5564 50.8353 78.4681 44.5783 62.2913 44.5783H27.2672V83.0361H63.207C70.8375 83.0361 76.6367 81.3574 80.6046 78C84.5725 74.49 86.5564 69.6064 86.5564 63.3494Z" fill="#4B7574"/>
<path id="R_2" d="M94.1366 154L63.6908 104.325H31.6426V154H4.40163V23.2892H69.6426C85.2089 23.2892 97.1888 26.6466 105.582 33.3614C114.129 40.0763 118.402 49.6908 118.402 62.2048C118.402 71.3614 115.807 79.2972 110.619 86.012C105.43 92.5743 98.4097 96.9237 89.5583 99.0602L124.811 154H94.1366ZM90.9318 63.3494C90.9318 50.8353 82.8434 44.5783 66.6667 44.5783H31.6426V83.0361H67.5824C75.2129 83.0361 81.0121 81.3574 84.9799 78C88.9478 74.49 90.9318 69.6064 90.9318 63.3494Z" fill="#F2F2F2"/>
</g>
<defs>
<filter id="filter0_i_2_15" x="0" y="0" width="162" height="202" filterUnits="userSpaceOnUse" color-interpolation-filters="sRGB">
<feFlood flood-opacity="0" result="BackgroundImageFix"/>
<feBlend mode="normal" in="SourceGraphic" in2="BackgroundImageFix" result="shape"/>
<feColorMatrix in="SourceAlpha" type="matrix" values="0 0 0 0 0 0 0 0 0 0 0 0 0 0 0 0 0 0 127 0" result="hardAlpha"/>
<feOffset dx="5" dy="4"/>
<feGaussianBlur stdDeviation="2"/>
<feComposite in2="hardAlpha" operator="arithmetic" k2="-1" k3="1"/>
<feColorMatrix type="matrix" values="0 0 0 0 0.0862745 0 0 0 0 0.2 0 0 0 0 0.2 0 0 0 0.4 0"/>
<feBlend mode="plus-darker" in2="shape" result="effect1_innerShadow_2_15"/>
</filter>
</defs>
</svg>
