<?xml version="1.0" encoding="UTF-8"?>
<!DOCTYPE svg PUBLIC "-//W3C//DTD SVG 1.1//EN" "http://www.w3.org/Graphics/SVG/1.1/DTD/svg11.dtd">
<svg xmlns="http://www.w3.org/2000/svg" version="1.1" width="486px" height="514px" style="shape-rendering:geometricPrecision; text-rendering:geometricPrecision; image-rendering:optimizeQuality; fill-rule:evenodd; clip-rule:evenodd" xmlns:xlink="http://www.w3.org/1999/xlink">
<g><path style="opacity:1" fill="#878787" d="M 233.5,143.5 C 234.78,144.931 236.447,145.598 238.5,145.5C 241.331,146.079 243.664,147.412 245.5,149.5C 245.738,151.404 246.738,152.738 248.5,153.5C 248.427,155.027 249.094,156.027 250.5,156.5C 250.41,159.152 251.076,161.485 252.5,163.5C 254.668,172.84 253.001,181.507 247.5,189.5C 240.457,197.876 233.791,206.543 227.5,215.5C 225.823,217.54 224.156,219.54 222.5,221.5C 221.861,222.097 221.528,222.93 221.5,224C 221.387,225.699 222.053,226.866 223.5,227.5C 224.338,227.842 224.672,228.508 224.5,229.5C 231.586,247.427 239.253,265.094 247.5,282.5C 248.404,283.209 248.737,284.209 248.5,285.5C 248.157,287.483 248.824,288.817 250.5,289.5C 251.441,291.05 252.107,292.716 252.5,294.5C 252.12,296.698 252.787,298.365 254.5,299.5C 256.685,303.213 258.352,307.213 259.5,311.5C 259.935,313.703 259.935,315.703 259.5,317.5C 256.485,319.674 253.151,321.341 249.5,322.5C 248.5,322.5 247.5,322.5 246.5,322.5C 240.735,307.191 234.402,292.191 227.5,277.5C 226.326,276.486 225.66,275.153 225.5,273.5C 225.88,271.302 225.213,269.635 223.5,268.5C 220.988,264.134 218.988,259.467 217.5,254.5C 217.598,252.447 216.931,250.78 215.5,249.5C 213.597,246.021 211.93,242.354 210.5,238.5C 209.833,235.833 209.167,235.833 208.5,238.5C 204.177,244.155 199.51,249.488 194.5,254.5C 193.503,276.327 193.169,298.327 193.5,320.5C 188.5,320.5 183.5,320.5 178.5,320.5C 177.335,261.335 177.168,202.001 178,142.5C 194.093,141.342 210.259,141.176 226.5,142C 228.92,142.29 231.254,142.79 233.5,143.5 Z M 227.5,158.5 C 231.413,159.45 234.08,161.783 235.5,165.5C 236.705,169.487 236.705,173.487 235.5,177.5C 235.5,177.833 235.5,178.167 235.5,178.5C 234.264,180.649 233.264,182.982 232.5,185.5C 230.1,187.296 228.433,189.63 227.5,192.5C 226.094,192.973 225.427,193.973 225.5,195.5C 223.367,197.091 221.701,199.091 220.5,201.5C 219.094,201.973 218.427,202.973 218.5,204.5C 217.167,205.167 216.167,206.167 215.5,207.5C 214.094,207.973 213.427,208.973 213.5,210.5C 212.5,210.833 211.833,211.5 211.5,212.5C 210.094,212.973 209.427,213.973 209.5,215.5C 208.5,215.833 207.833,216.5 207.5,217.5C 205.738,218.262 204.738,219.596 204.5,221.5C 203.5,221.833 202.833,222.5 202.5,223.5C 200.738,224.262 199.738,225.596 199.5,227.5C 197.413,228.585 196.08,230.251 195.5,232.5C 194.502,207.672 194.169,182.672 194.5,157.5C 205.523,157.316 216.523,157.649 227.5,158.5 Z"/></g>
<g><path style="opacity:0.333" fill="#d2d2d2" d="M 233.5,143.5 C 235.553,143.402 237.22,144.069 238.5,145.5C 236.447,145.598 234.78,144.931 233.5,143.5 Z"/></g>
<g><path style="opacity:0.557" fill="#d2d2d2" d="M 245.5,149.5 C 247.262,150.262 248.262,151.596 248.5,153.5C 246.738,152.738 245.738,151.404 245.5,149.5 Z"/></g>
<g><path style="opacity:0.282" fill="#d1d1d1" d="M 248.5,153.5 C 249.906,153.973 250.573,154.973 250.5,156.5C 249.094,156.027 248.427,155.027 248.5,153.5 Z"/></g>
<g><path style="opacity:0.847" fill="#bababa" d="M 250.5,156.5 C 251.924,158.515 252.59,160.848 252.5,163.5C 251.076,161.485 250.41,159.152 250.5,156.5 Z"/></g>
<g><path style="opacity:0.4" fill="#c0c0c0" d="M 227.5,158.5 C 216.523,157.649 205.523,157.316 194.5,157.5C 194.169,182.672 194.502,207.672 195.5,232.5C 195.217,233.289 194.717,233.956 194,234.5C 193.5,208.502 193.333,182.502 193.5,156.5C 203.839,156.334 214.172,156.5 224.5,157C 225.737,157.232 226.737,157.732 227.5,158.5 Z"/></g>
<g><path style="opacity:0.496" fill="#bfbfbf" d="M 235.5,165.5 C 236.972,167.117 237.639,169.117 237.5,171.5C 237.639,173.883 236.972,175.883 235.5,177.5C 236.705,173.487 236.705,169.487 235.5,165.5 Z"/></g>
<g><path style="opacity:0.996" fill="#aeaeae" d="M 235.5,178.5 C 235.821,181.577 234.821,183.91 232.5,185.5C 233.264,182.982 234.264,180.649 235.5,178.5 Z"/></g>
<g><path style="opacity:0.345" fill="#d3d3d3" d="M 232.5,185.5 C 231.567,188.37 229.9,190.704 227.5,192.5C 228.433,189.63 230.1,187.296 232.5,185.5 Z"/></g>
<g><path style="opacity:0.993" fill="#f2f2f2" d="M 247.5,282.5 C 239.253,265.094 231.586,247.427 224.5,229.5C 225.232,230.808 226.066,232.142 227,233.5C 227.167,233 227.333,232.5 227.5,232C 226.683,226.263 226.683,220.763 227.5,215.5C 233.791,206.543 240.457,197.876 247.5,189.5C 261.419,207.756 276.086,225.422 291.5,242.5C 292.333,224.509 292.833,206.509 293,188.5C 293.5,188 294,187.5 294.5,187C 299.419,186.198 304.252,186.365 309,187.5C 309.833,249.169 309.667,310.836 308.5,372.5C 303.524,373.638 298.524,373.638 293.5,372.5C 293.007,337.778 292.174,303.111 291,268.5C 276,250.833 261,233.167 246,215.5C 245.125,216.873 244.625,218.373 244.5,220C 245.17,231.641 245.17,243.308 244.5,255C 244.026,264.368 245.026,273.534 247.5,282.5 Z"/></g>
<g><path style="opacity:0.424" fill="#cdcdcd" d="M 227.5,192.5 C 227.573,194.027 226.906,195.027 225.5,195.5C 225.427,193.973 226.094,192.973 227.5,192.5 Z"/></g>
<g><path style="opacity:0.659" fill="#c1c1c1" d="M 220.5,201.5 C 220.573,203.027 219.906,204.027 218.5,204.5C 218.427,202.973 219.094,201.973 220.5,201.5 Z"/></g>
<g><path style="opacity:0.569" fill="#c7c7c7" d="M 215.5,207.5 C 215.573,209.027 214.906,210.027 213.5,210.5C 213.427,208.973 214.094,207.973 215.5,207.5 Z"/></g>
<g><path style="opacity:0.616" fill="#c0c0c0" d="M 211.5,212.5 C 211.573,214.027 210.906,215.027 209.5,215.5C 209.427,213.973 210.094,212.973 211.5,212.5 Z"/></g>
<g><path style="opacity:0.651" fill="#bebebe" d="M 207.5,217.5 C 207.262,219.404 206.262,220.738 204.5,221.5C 204.738,219.596 205.738,218.262 207.5,217.5 Z"/></g>
<g><path style="opacity:0.506" fill="#c8c8c8" d="M 202.5,223.5 C 202.262,225.404 201.262,226.738 199.5,227.5C 199.738,225.596 200.738,224.262 202.5,223.5 Z"/></g>
<g><path style="opacity:0.776" fill="#c1c1c1" d="M 222.5,221.5 C 222.517,223.565 222.85,225.565 223.5,227.5C 222.053,226.866 221.387,225.699 221.5,224C 221.528,222.93 221.861,222.097 222.5,221.5 Z"/></g>
<g><path style="opacity:0.592" fill="#bcbcbc" d="M 199.5,227.5 C 198.92,229.749 197.587,231.415 195.5,232.5C 196.08,230.251 197.413,228.585 199.5,227.5 Z"/></g>
<g><path style="opacity:0.006" fill="#efefef" d="M 210.5,238.5 C 209.833,238.5 209.167,238.5 208.5,238.5C 209.167,235.833 209.833,235.833 210.5,238.5 Z"/></g>
<g><path style="opacity:0.322" fill="#cccccc" d="M 215.5,249.5 C 216.931,250.78 217.598,252.447 217.5,254.5C 216.069,253.22 215.402,251.553 215.5,249.5 Z"/></g>
<g><path style="opacity:0.549" fill="#c0c0c0" d="M 223.5,268.5 C 225.213,269.635 225.88,271.302 225.5,273.5C 224.463,272.07 223.796,270.403 223.5,268.5 Z"/></g>
<g><path style="opacity:0.384" fill="#bfbfbf" d="M 194.5,254.5 C 194.5,276.833 194.5,299.167 194.5,321.5C 188.974,321.821 183.64,321.488 178.5,320.5C 183.5,320.5 188.5,320.5 193.5,320.5C 193.169,298.327 193.503,276.327 194.5,254.5 Z"/></g>
<g><path style="opacity:0.992" fill="#f2f2f2" d="M 227.5,277.5 C 234.402,292.191 240.735,307.191 246.5,322.5C 247.5,322.5 248.5,322.5 249.5,322.5C 247.174,323.69 246.007,325.69 246,328.5C 245.42,342.837 244.753,357.171 244,371.5C 242.915,372.293 241.748,372.96 240.5,373.5C 236.059,373.183 231.892,372.183 228,370.5C 227.5,339.502 227.333,308.502 227.5,277.5 Z"/></g>
<g><path style="opacity:0.898" fill="#bebebe" d="M 248.5,285.5 C 249.674,286.514 250.34,287.847 250.5,289.5C 248.824,288.817 248.157,287.483 248.5,285.5 Z"/></g>
<g><path style="opacity:0.784" fill="#bdbdbd" d="M 252.5,294.5 C 253.537,295.93 254.204,297.597 254.5,299.5C 252.787,298.365 252.12,296.698 252.5,294.5 Z"/></g>
<g><path style="opacity:0.831" fill="#b1b1b1" d="M 259.5,311.5 C 260.434,312.772 261.101,314.272 261.5,316C 261.164,317.03 260.497,317.53 259.5,317.5C 259.935,315.703 259.935,313.703 259.5,311.5 Z"/></g>
</svg>
