<svg width="48" height="781" viewBox="0 0 48 781" fill="none" xmlns="http://www.w3.org/2000/svg">
<g clip-path="url(#clip0_4451_24)">
<path d="M24 -0.00128174L24.9962 780.999" stroke="#76B2B0" stroke-width="2"/>
<mask id="mask0_4451_24" style="mask-type:luminance" maskUnits="userSpaceOnUse" x="1" y="13" width="47" height="46">
<path d="M1.71193 13.0001L1 57.8655L46.4373 58.5865L47.1492 13.7211L1.71193 13.0001Z" fill="white"/>
</mask>
<g mask="url(#mask0_4451_24)">
<path d="M24.3988 15.3602C35.8655 15.5422 44.9722 24.861 44.7935 36.122C44.6148 47.383 35.2171 56.4082 23.7504 56.2262C12.2837 56.0443 3.17705 46.7255 3.35573 35.4645C3.53442 24.2034 12.9321 15.1783 24.3988 15.3602Z" fill="#070707" stroke="#76B2B0" stroke-width="4"/>
</g>
<mask id="mask1_4451_24" style="mask-type:luminance" maskUnits="userSpaceOnUse" x="1" y="705" width="47" height="47">
<path d="M1.71193 706L1 750.865L46.4373 751.586L47.1492 706.721L1.71193 706Z" fill="white"/>
</mask>
<g mask="url(#mask1_4451_24)">
<path d="M24.3988 708.36C35.8655 708.542 44.9722 717.861 44.7935 729.122C44.6148 740.383 35.2171 749.408 23.7504 749.226C12.2837 749.044 3.17705 739.725 3.35573 728.464C3.53442 717.203 12.9321 708.178 24.3988 708.36Z" fill="#070707" stroke="#76B2B0" stroke-width="4"/>
</g>
<mask id="mask2_4451_24" style="mask-type:luminance" maskUnits="userSpaceOnUse" x="0" y="606" width="47" height="47">
<path d="M0.71193 607L0 651.865L45.4373 652.586L46.1492 607.721L0.71193 607Z" fill="white"/>
</mask>
<g mask="url(#mask2_4451_24)">
<path d="M23.3988 609.36C34.8655 609.542 43.9722 618.861 43.7935 630.122C43.6148 641.383 34.2171 650.408 22.7504 650.226C11.2837 650.044 2.17705 640.725 2.35573 629.464C2.53442 618.203 11.9321 609.178 23.3988 609.36Z" fill="#070707" stroke="#76B2B0" stroke-width="4"/>
</g>
<mask id="mask3_4451_24" style="mask-type:luminance" maskUnits="userSpaceOnUse" x="0" y="408" width="47" height="47">
<path d="M0.71193 409L0 453.865L45.4373 454.586L46.1492 409.721L0.71193 409Z" fill="white"/>
</mask>
<g mask="url(#mask3_4451_24)">
<path d="M23.3988 411.36C34.8655 411.542 43.9722 420.861 43.7935 432.122C43.6148 443.383 34.2171 452.408 22.7504 452.226C11.2837 452.044 2.17705 442.725 2.35573 431.464C2.53442 420.203 11.9321 411.178 23.3988 411.36Z" fill="#070707" stroke="#76B2B0" stroke-width="4"/>
</g>
<mask id="mask4_4451_24" style="mask-type:luminance" maskUnits="userSpaceOnUse" x="1" y="507" width="47" height="47">
<path d="M1.71193 508L1 552.865L46.4373 553.586L47.1492 508.721L1.71193 508Z" fill="white"/>
</mask>
<g mask="url(#mask4_4451_24)">
<path d="M24.3988 510.36C35.8655 510.542 44.9722 519.861 44.7935 531.122C44.6148 542.383 35.2171 551.408 23.7504 551.226C12.2837 551.044 3.17705 541.725 3.35573 530.464C3.53442 519.203 12.9321 510.178 24.3988 510.36Z" fill="#070707" stroke="#76B2B0" stroke-width="4"/>
</g>
<mask id="mask5_4451_24" style="mask-type:luminance" maskUnits="userSpaceOnUse" x="0" y="309" width="47" height="47">
<path d="M0.71193 310L0 354.865L45.4373 355.586L46.1492 310.721L0.71193 310Z" fill="white"/>
</mask>
<g mask="url(#mask5_4451_24)">
<path d="M23.3988 312.36C34.8655 312.542 43.9722 321.861 43.7935 333.122C43.6148 344.383 34.2171 353.408 22.7504 353.226C11.2837 353.044 2.17705 343.725 2.35573 332.464C2.53442 321.203 11.9321 312.178 23.3988 312.36Z" fill="#070707" stroke="#76B2B0" stroke-width="4"/>
</g>
<mask id="mask6_4451_24" style="mask-type:luminance" maskUnits="userSpaceOnUse" x="0" y="210" width="47" height="47">
<path d="M0.71193 211L0 255.865L45.4373 256.586L46.1492 211.721L0.71193 211Z" fill="white"/>
</mask>
<g mask="url(#mask6_4451_24)">
<path d="M23.3988 213.36C34.8655 213.542 43.9722 222.861 43.7935 234.122C43.6148 245.383 34.2171 254.408 22.7504 254.226C11.2837 254.044 2.17705 244.725 2.35573 233.464C2.53442 222.203 11.9321 213.178 23.3988 213.36Z" fill="#070707" stroke="#76B2B0" stroke-width="4"/>
</g>
<mask id="mask7_4451_24" style="mask-type:luminance" maskUnits="userSpaceOnUse" x="1" y="111" width="47" height="47">
<path d="M1.71193 112L1 156.865L46.4373 157.586L47.1492 112.721L1.71193 112Z" fill="white"/>
</mask>
<g mask="url(#mask7_4451_24)">
<path d="M24.3988 114.36C35.8655 114.542 44.9722 123.861 44.7935 135.122C44.6148 146.383 35.2171 155.408 23.7504 155.226C12.2837 155.044 3.17705 145.725 3.35573 134.464C3.53442 123.203 12.9321 114.178 24.3988 114.36Z" fill="#070707" stroke="#76B2B0" stroke-width="4"/>
</g>
</g>
<defs>
<clipPath id="clip0_4451_24">
<rect width="48" height="781" fill="white"/>
</clipPath>
</defs>
</svg>
